<svg xmlns="http://www.w3.org/2000/svg" xml:space="preserve" width="1500" height="1500" data-id="lg_1qt4x8L6HD1vbHM5Rl" data-version="1" viewBox="0 0 1500 1500"><path fill="#ffccea" stroke="transparent" d="M0 0h1500v1500H0z"/><g data-padding="20"><g fill="#6b7280"><path d="M918.436 778.39c-9.509 0-19.017-4.076-25.809-12.226-12.225-13.583-9.508-35.317 2.717-47.542l42.109-42.11c4.075-4.074 4.075-9.508 0-13.583l-42.11-42.109c-12.224-12.225-14.941-32.6-4.074-46.184 13.583-16.3 36.675-16.3 50.259-2.717l74.71 74.71c6.791 6.792 9.508 14.942 9.508 24.45s-4.075 17.659-9.509 24.45l-74.709 74.71c-6.792 5.434-14.942 8.15-23.092 8.15m-336.872.136c-8.15 0-17.659-2.716-24.45-9.508l-73.351-73.351c-6.792-6.792-9.509-14.942-9.509-24.45s4.075-17.66 9.509-24.45l73.35-73.352c12.226-12.225 32.601-14.942 46.185-4.075 16.3 13.583 16.3 36.675 2.716 50.259l-43.467 43.467c-4.075 4.075-4.075 9.509 0 13.584l42.11 42.109c12.224 12.225 14.941 33.959 2.716 47.542-6.792 8.15-16.3 12.225-25.809 12.225m123.61 51.618c-4.075 0-8.15 0-10.867-1.358-17.658-6.792-27.167-25.81-20.375-43.468l89.652-249.937c6.791-17.659 25.808-27.167 43.467-20.375s27.167 25.808 20.375 43.467l-89.651 249.937c-5.434 12.225-19.017 21.734-32.6 21.734"/><path d="M1209.124 267.784H290.876c-12.225 0-23.092 10.867-23.092 23.092v918.248c0 12.225 10.867 23.092 23.092 23.092h918.248c12.225 0 23.092-10.867 23.092-23.092V290.876c0-12.225-10.867-23.092-23.092-23.092M600.58 322.118c16.3 0 28.525 12.226 28.525 28.526s-12.225 28.525-28.525 28.525-28.525-12.225-28.525-28.525 12.225-28.526 28.525-28.526m-120.894 0c16.3 0 28.526 12.226 28.526 28.526s-12.225 28.525-28.526 28.525c-14.941 0-28.525-12.225-28.525-28.525s13.584-28.526 28.525-28.526m-119.535 0c16.3 0 28.526 12.226 28.526 28.526s-12.225 28.525-28.526 28.525-28.525-12.225-28.525-28.525 12.225-28.526 28.525-28.526m-24.45 819.088V485.121c0-12.225 10.867-23.092 23.092-23.092h782.412c12.225 0 23.092 10.867 23.092 23.092v400.714c-1.358 0-1.358-1.358-2.717-1.358-5.433-1.358-8.15-6.792-8.15-10.867v-47.542a12.175 12.175 0 0 0-12.225-12.225h-78.785a12.175 12.175 0 0 0-12.225 12.225v47.542c0 5.434-4.075 9.509-8.15 10.867-10.867 2.717-20.375 8.15-29.884 12.225-4.075 2.717-10.866 1.359-13.583-1.358l-31.242-29.884c-8.15-8.15-14.942-8.15-20.376-2.717l-55.692 55.693c-5.434 5.433-5.434 12.225 0 17.659l32.6 32.6c4.075 4.075 4.075 9.509 2.717 13.584-5.433 9.508-9.508 20.375-12.225 29.883-1.358 5.434-6.792 9.509-12.225 9.509h-47.543a12.175 12.175 0 0 0-12.225 12.225v78.785a12.175 12.175 0 0 0 12.225 12.225h47.543c5.433 0 9.508 4.075 10.867 8.15 1.358 5.433 4.075 12.225 6.791 17.659 2.717 6.791-2.716 14.941-9.508 14.941H358.794c-12.225-1.358-23.092-12.225-23.092-24.45m805.504 23.092h-114.102c-4.075 0-8.15-1.358-10.867-4.075-25.808-25.809-40.75-63.843-35.317-104.593 6.792-52.976 50.26-96.443 103.235-104.594 29.884-4.075 58.41 1.359 81.501 16.3v173.87c-1.358 12.225-12.225 23.092-24.45 23.092"/></g><path fill="transparent" stroke="transparent" stroke-width="1.812" d="M250 250h1000v1000H250z"/></g></svg>