<svg xmlns="http://www.w3.org/2000/svg" xml:space="preserve" width="1500" height="1500" data-id="lg_1qt4x8L6HD1vbHM5Rl" data-version="1" viewBox="0 0 1500 1500"><path fill="#ffccea" stroke="transparent" d="M0 0h1500v1500H0z"/><g data-padding="20"><g transform="translate(-571.429 -581.952)scale(1.72194)"><rect width="348.941" height="237.3" x="204.333" y="265.915" fill="none" rx="0" ry="0" transform="matrix(.97 0 0 .97 510.67 400.49)"/><path fill="#6b7280" d="M779.683 705.435q20.574 0 38.295 9.166l-3.259 15.48-2.037.409q-9.777-6.111-18.032-8.76-8.245-2.648-17.412-2.648-44.202 0-44.202 54.592 0 26.277 10.282 38.596 10.291 12.33 31.883 12.33 5.704 0 11.505-1.02 5.81-1.018 14.976-3.87l.408-15.277-.204-19.555 15.278-1.223-.408 18.537.815 28.518q-13.24 4.074-23.425 5.907t-19.76 1.834q-29.128 0-43.698-16.5-14.56-16.5-14.56-47.666 0-33.61 16.5-51.235 16.5-17.615 47.055-17.615m109.183 14.676-22.814.407-.408 45.426 22 .407 21.185-.611 1.222 1.63-1.426 12.425-22.61-.611-20.574.204-.204 16.907.815 40.74h-16.5l1.02-39.314-1.02-91.258h69.462l1.222 1.63-1.426 13.037Zm93.916 69.665-.204 9.167.407 38.092h-16.092l.815-38.092-.204-8.555-41.35-83.925h17.517l2.648 7.333 28.518 58.666h1.426l31.37-58.258 3.056-7.74h17.11Zm-374.605-15.91c-1.764 0-3.528-.756-4.788-2.268-2.268-2.52-1.764-6.552.504-8.82l7.812-7.812c.756-.756.756-1.764 0-2.52l-7.812-7.812c-2.268-2.268-2.772-6.048-.756-8.568 2.52-3.024 6.804-3.024 9.324-.504l13.86 13.86c1.26 1.26 1.764 2.772 1.764 4.536s-.756 3.276-1.764 4.536l-13.86 13.86a6.84 6.84 0 0 1-4.284 1.512m-62.496.025c-1.512 0-3.276-.504-4.536-1.764l-13.608-13.608c-1.26-1.26-1.764-2.772-1.764-4.536s.756-3.276 1.764-4.536l13.608-13.608c2.268-2.268 6.048-2.772 8.568-.756 3.024 2.52 3.024 6.804.504 9.324l-8.064 8.064c-.756.756-.756 1.764 0 2.52l7.812 7.812c2.268 2.268 2.772 6.3.504 8.82-1.26 1.512-3.024 2.268-4.788 2.268m22.932 9.576c-.756 0-1.512 0-2.016-.252-3.276-1.26-5.04-4.788-3.78-8.064l16.632-46.368c1.26-3.276 4.788-5.04 8.064-3.78s5.04 4.788 3.78 8.064l-16.632 46.368c-1.008 2.268-3.528 4.032-6.048 4.032"/><path fill="#6b7280" d="M662.105 679.139H491.753c-2.268 0-4.284 2.016-4.284 4.284v170.352c0 2.268 2.016 4.284 4.284 4.284h170.352c2.268 0 4.284-2.016 4.284-4.284V683.423c0-2.268-2.016-4.284-4.284-4.284m-112.896 10.08c3.024 0 5.292 2.268 5.292 5.292s-2.268 5.292-5.292 5.292-5.292-2.268-5.292-5.292 2.268-5.292 5.292-5.292m-22.428 0c3.024 0 5.292 2.268 5.292 5.292s-2.268 5.292-5.292 5.292c-2.772 0-5.292-2.268-5.292-5.292s2.52-5.292 5.292-5.292m-22.176 0c3.024 0 5.292 2.268 5.292 5.292s-2.268 5.292-5.292 5.292-5.292-2.268-5.292-5.292 2.268-5.292 5.292-5.292m-4.536 151.956V719.459c0-2.268 2.016-4.284 4.284-4.284h145.152c2.268 0 4.284 2.016 4.284 4.284v74.34c-.252 0-.252-.252-.504-.252-1.008-.252-1.512-1.26-1.512-2.016v-8.82a2.26 2.26 0 0 0-2.268-2.268H634.89a2.26 2.26 0 0 0-2.268 2.268v8.82c0 1.008-.756 1.764-1.512 2.016-2.016.504-3.78 1.512-5.544 2.268-.756.504-2.016.252-2.52-.252l-5.796-5.544c-1.512-1.512-2.772-1.512-3.78-.504l-10.332 10.332c-1.008 1.008-1.008 2.268 0 3.276l6.048 6.048c.756.756.756 1.764.504 2.52-1.008 1.764-1.764 3.78-2.268 5.544-.252 1.008-1.26 1.764-2.268 1.764h-8.82a2.26 2.26 0 0 0-2.268 2.268v14.616a2.26 2.26 0 0 0 2.268 2.268h8.82c1.008 0 1.764.756 2.016 1.512.252 1.008.756 2.268 1.26 3.276.504 1.26-.504 2.772-1.764 2.772H504.353c-2.268-.252-4.284-2.268-4.284-4.536m149.436 4.284h-21.168c-.756 0-1.512-.252-2.016-.756a23.1 23.1 0 0 1-6.552-19.404c1.26-9.828 9.324-17.892 19.152-19.404 5.544-.756 10.836.252 15.12 3.024v32.256c-.252 2.268-2.268 4.284-4.536 4.284"/></g><path fill="transparent" stroke="transparent" stroke-width="1.786" d="M250 544.643h1000v410.714H250z"/></g></svg>